<svg xmlns="http://www.w3.org/2000/svg" viewBox="0 0 1600 1000" role="img" aria-label="Aurora showcase">
  <defs>
    <linearGradient id="night" x1="0" y1="0" x2="0" y2="1">
      <stop offset="0%" stop-color="#030713"/>
      <stop offset="100%" stop-color="#11203d"/>
    </linearGradient>
    <linearGradient id="aurora1" x1="0" y1="0" x2="1" y2="0">
      <stop offset="0%" stop-color="#65f4c8" stop-opacity="0.1"/>
      <stop offset="50%" stop-color="#8df6ff" stop-opacity="0.8"/>
      <stop offset="100%" stop-color="#7d9bff" stop-opacity="0.15"/>
    </linearGradient>
  </defs>
  <rect width="1600" height="1000" fill="url(#night)"/>
  <path d="M0 220 C250 120, 440 280, 720 180 C980 90, 1240 300, 1600 180 L1600 480 L0 480 Z" fill="url(#aurora1)"/>
  <path d="M0 320 C300 200, 620 360, 920 250 C1170 170, 1390 320, 1600 260 L1600 560 L0 560 Z" fill="#88ffd4" opacity="0.35"/>
  <polygon points="120,820 500,460 860,820" fill="#1f345c"/>
  <polygon points="620,820 980,420 1320,820" fill="#2d4a74"/>
  <rect y="820" width="1600" height="180" fill="#0a1225"/>
  <text x="70" y="940" fill="#c8ddff" font-size="52" font-family="Segoe UI, Arial, sans-serif" opacity="0.85">Sakura AI Showcase</text>
</svg>
